<svg viewBox="0 0 8 8" xmlns="http://www.w3.org/2000/svg"><rect x="0" y="0" width="1" height="1" fill="rgb(240, 217, 182)"></rect><rect x="1" y="0" width="1" height="1" fill="rgb(181, 136, 100)"></rect><rect x="2" y="0" width="1" height="1" fill="rgb(240, 217, 182)"></rect><rect x="3" y="0" width="1" height="1" fill="rgb(181, 136, 100)"></rect><rect x="4" y="0" width="1" height="1" fill="rgb(240, 217, 182)"></rect><rect x="5" y="0" width="1" height="1" fill="rgb(181, 136, 100)"></rect><rect x="6" y="0" width="1" height="1" fill="rgb(240, 217, 182)"></rect><rect x="7" y="0" width="1" height="1" fill="rgb(181, 136, 100)"></rect><rect x="0" y="1" width="1" height="1" fill="rgb(181, 136, 100)"></rect><rect x="1" y="1" width="1" height="1" fill="rgb(240, 217, 182)"></rect><rect x="2" y="1" width="1" height="1" fill="rgb(181, 136, 100)"></rect><rect x="3" y="1" width="1" height="1" fill="rgb(240, 217, 182)"></rect><rect x="4" y="1" width="1" height="1" fill="rgb(181, 136, 100)"></rect><rect x="5" y="1" width="1" height="1" fill="rgb(240, 217, 182)"></rect><rect x="6" y="1" width="1" height="1" fill="rgb(181, 136, 100)"></rect><rect x="7" y="1" width="1" height="1" fill="rgb(240, 217, 182)"></rect><rect x="0" y="2" width="1" height="1" fill="rgb(240, 217, 182)"></rect><rect x="1" y="2" width="1" height="1" fill="rgb(181, 136, 100)"></rect><rect x="2" y="2" width="1" height="1" fill="rgb(240, 217, 182)"></rect><rect x="3" y="2" width="1" height="1" fill="rgb(181, 136, 100)"></rect><rect x="4" y="2" width="1" height="1" fill="rgb(240, 217, 182)"></rect><rect x="5" y="2" width="1" height="1" fill="rgb(181, 136, 100)"></rect><rect x="6" y="2" width="1" height="1" fill="rgb(240, 217, 182)"></rect><rect x="7" y="2" width="1" height="1" fill="rgb(181, 136, 100)"></rect><rect x="0" y="3" width="1" height="1" fill="rgb(181, 136, 100)"></rect><rect x="1" y="3" width="1" height="1" fill="rgb(240, 217, 182)"></rect><rect x="2" y="3" width="1" height="1" fill="rgb(181, 136, 100)"></rect><rect x="3" y="3" width="1" height="1" fill="rgb(240, 217, 182)"></rect><rect x="4" y="3" width="1" height="1" fill="rgb(181, 136, 100)"></rect><rect x="5" y="3" width="1" height="1" fill="rgb(240, 217, 182)"></rect><rect x="6" y="3" width="1" height="1" fill="rgb(181, 136, 100)"></rect><rect x="7" y="3" width="1" height="1" fill="rgb(240, 217, 182)"></rect><rect x="0" y="4" width="1" height="1" fill="rgb(240, 217, 182)"></rect><rect x="1" y="4" width="1" height="1" fill="rgb(181, 136, 100)"></rect><rect x="2" y="4" width="1" height="1" fill="rgb(240, 217, 182)"></rect><rect x="3" y="4" width="1" height="1" fill="rgb(181, 136, 100)"></rect><rect x="4" y="4" width="1" height="1" fill="rgb(240, 217, 182)"></rect><rect x="5" y="4" width="1" height="1" fill="rgb(181, 136, 100)"></rect><rect x="6" y="4" width="1" height="1" fill="rgb(240, 217, 182)"></rect><rect x="7" y="4" width="1" height="1" fill="rgb(181, 136, 100)"></rect><rect x="0" y="5" width="1" height="1" fill="rgb(181, 136, 100)"></rect><rect x="1" y="5" width="1" height="1" fill="rgb(240, 217, 182)"></rect><rect x="2" y="5" width="1" height="1" fill="rgb(181, 136, 100)"></rect><rect x="3" y="5" width="1" height="1" fill="rgb(240, 217, 182)"></rect><rect x="4" y="5" width="1" height="1" fill="rgb(181, 136, 100)"></rect><rect x="5" y="5" width="1" height="1" fill="rgb(240, 217, 182)"></rect><rect x="6" y="5" width="1" height="1" fill="rgb(181, 136, 100)"></rect><rect x="7" y="5" width="1" height="1" fill="rgb(240, 217, 182)"></rect><rect x="0" y="6" width="1" height="1" fill="rgb(240, 217, 182)"></rect><rect x="1" y="6" width="1" height="1" fill="rgb(181, 136, 100)"></rect><rect x="2" y="6" width="1" height="1" fill="rgb(240, 217, 182)"></rect><rect x="3" y="6" width="1" height="1" fill="rgb(181, 136, 100)"></rect><rect x="4" y="6" width="1" height="1" fill="rgb(240, 217, 182)"></rect><rect x="5" y="6" width="1" height="1" fill="rgb(181, 136, 100)"></rect><rect x="6" y="6" width="1" height="1" fill="rgb(240, 217, 182)"></rect><rect x="7" y="6" width="1" height="1" fill="rgb(181, 136, 100)"></rect><rect x="0" y="7" width="1" height="1" fill="rgb(181, 136, 100)"></rect><rect x="1" y="7" width="1" height="1" fill="rgb(240, 217, 182)"></rect><rect x="2" y="7" width="1" height="1" fill="rgb(181, 136, 100)"></rect><rect x="3" y="7" width="1" height="1" fill="rgb(240, 217, 182)"></rect><rect x="4" y="7" width="1" height="1" fill="rgb(181, 136, 100)"></rect><rect x="5" y="7" width="1" height="1" fill="rgb(240, 217, 182)"></rect><rect x="6" y="7" width="1" height="1" fill="rgb(181, 136, 100)"></rect><rect x="7" y="7" width="1" height="1" fill="rgb(240, 217, 182)"></rect><g transform="translate(2, 4)"><rect x="0" y="0" width="1" height="1" fill="rgb(128, 128, 128)" fill-opacity="0"></rect><text x="0" y="0" font-size="1.5" font-family="monospace" fill="black" transform="translate(0.037, 0.86)">x</text></g><text x="7.9" y="0.3" font-size="0.3" text-anchor="end" fill="rgb(240, 217, 182)">8</text><text x="0.05" y="7.9" font-size="0.3" text-anchor="start" fill="rgb(240, 217, 182)">a</text><text x="7.9" y="1.3" font-size="0.3" text-anchor="end" fill="rgb(181, 136, 100)">7</text><text x="1.05" y="7.9" font-size="0.3" text-anchor="start" fill="rgb(181, 136, 100)">b</text><text x="7.9" y="2.3" font-size="0.3" text-anchor="end" fill="rgb(240, 217, 182)">6</text><text x="2.05" y="7.9" font-size="0.3" text-anchor="start" fill="rgb(240, 217, 182)">c</text><text x="7.9" y="3.3" font-size="0.3" text-anchor="end" fill="rgb(181, 136, 100)">5</text><text x="3.05" y="7.9" font-size="0.3" text-anchor="start" fill="rgb(181, 136, 100)">d</text><text x="7.9" y="4.3" font-size="0.3" text-anchor="end" fill="rgb(240, 217, 182)">4</text><text x="4.05" y="7.9" font-size="0.3" text-anchor="start" fill="rgb(240, 217, 182)">e</text><text x="7.9" y="5.3" font-size="0.3" text-anchor="end" fill="rgb(181, 136, 100)">3</text><text x="5.05" y="7.9" font-size="0.3" text-anchor="start" fill="rgb(181, 136, 100)">f</text><text x="7.9" y="6.3" font-size="0.3" text-anchor="end" fill="rgb(240, 217, 182)">2</text><text x="6.05" y="7.9" font-size="0.3" text-anchor="start" fill="rgb(240, 217, 182)">g</text><text x="7.9" y="7.3" font-size="0.3" text-anchor="end" fill="rgb(181, 136, 100)">1</text><text x="7.05" y="7.9" font-size="0.3" text-anchor="start" fill="rgb(181, 136, 100)">h</text><g transform="
		translate(0.98, -0.03)
		scale(0.023)
	">
    <g style="fill:none; fill-opacity:1; fill-rule:evenodd; stroke:black; stroke-width:1.5; stroke-linecap:round;stroke-linejoin:round;stroke-miterlimit:4; stroke-dasharray:none; stroke-opacity:1;">
    <path d="M 22.5,11.63 L 22.5,6" style="fill:none; stroke:black; stroke-linejoin:miter;"></path>
    <path d="M 20,8 L 25,8" style="fill:none; stroke:black; stroke-linejoin:miter;"></path>
    <path d="M 22.5,25 C 22.5,25 27,17.5 25.5,14.5 C 25.5,14.5 24.5,12 22.5,12 C 20.5,12 19.5,14.5 19.5,14.5 C 18,17.5 22.5,25 22.5,25" style="fill:white; stroke:black; stroke-linecap:butt; stroke-linejoin:miter;"></path>
    <path d="M 12.5,37 C 18,40.5 27,40.5 32.5,37 L 32.5,30 C 32.5,30 41.5,25.5 38.5,19.5 C 34.5,13 25,16 22.5,23.5 L 22.5,27 L 22.5,23.5 C 20,16 10.5,13 6.5,19.5 C 3.5,25.5 12.5,30 12.5,30 L 12.5,37" style="fill:white; stroke:black;"></path>
    <path d="M 12.5,30 C 18,27 27,27 32.5,30" style="fill:none; stroke:black;"></path>
    <path d="M 12.5,33.5 C 18,30.5 27,30.5 32.5,33.5" style="fill:none; stroke:black;"></path>
    <path d="M 12.5,37 C 18,34 27,34 32.5,37" style="fill:none; stroke:black;"></path>
  </g></g><g transform="
		translate(3.98, 1.97)
		scale(0.023)
	">
    <g style="fill:none; fill-opacity:1; fill-rule:evenodd; stroke:black; stroke-width:1.5; stroke-linecap:round;stroke-linejoin:round;stroke-miterlimit:4; stroke-dasharray:none; stroke-opacity:1;">
    <path d="M 22.5,11.63 L 22.5,6" style="fill:none; stroke:black; stroke-linejoin:miter;" id="path6570"></path>
    <path d="M 22.5,25 C 22.5,25 27,17.5 25.5,14.5 C 25.5,14.5 24.5,12 22.5,12 C 20.5,12 19.5,14.5 19.5,14.5 C 18,17.5 22.5,25 22.5,25" style="fill:black;fill-opacity:1; stroke-linecap:butt; stroke-linejoin:miter;"></path>
    <path d="M 12.5,37 C 18,40.5 27,40.5 32.5,37 L 32.5,30 C 32.5,30 41.5,25.5 38.5,19.5 C 34.5,13 25,16 22.5,23.5 L 22.5,27 L 22.5,23.5 C 20,16 10.5,13 6.5,19.5 C 3.5,25.5 12.5,30 12.5,30 L 12.5,37" style="fill:black; stroke:black;"></path>
    <path d="M 20,8 L 25,8" style="fill:none; stroke:black; stroke-linejoin:miter;"></path>
    <path d="M 32,29.5 C 32,29.5 40.5,25.5 38.03,19.85 C 34.15,14 25,18 22.5,24.5 L 22.5,26.6 L 22.5,24.5 C 20,18 10.85,14 6.97,19.85 C 4.5,25.5 13,29.5 13,29.5" style="fill:none; stroke:white;"></path>
    <path d="M 12.5,30 C 18,27 27,27 32.5,30 M 12.5,33.5 C 18,30.5 27,30.5 32.5,33.5 M 12.5,37 C 18,34 27,34 32.5,37" style="fill:none; stroke:white;"></path>
  </g></g><g transform="
		translate(0.98, 4.97)
		scale(0.023)
	">
	<path d="m 22.5,9 c -2.21,0 -4,1.79 -4,4 0,0.89 0.29,1.71 0.78,2.38 C 17.33,16.5 16,18.59 16,21 c 0,2.03 0.94,3.84 2.41,5.03 C 15.41,27.09 11,31.58 11,39.5 H 34 C 34,31.58 29.59,27.09 26.59,26.03 28.06,24.84 29,23.03 29,21 29,18.59 27.67,16.5 25.72,15.38 26.21,14.71 26.5,13.89 26.5,13 c 0,-2.21 -1.79,-4 -4,-4 z" style="opacity:1; fill:white; fill-opacity:1; fill-rule:nonzero; stroke:black; stroke-width:1.5; stroke-linecap:round; stroke-linejoin:miter; stroke-miterlimit:4; stroke-dasharray:none; stroke-opacity:1;"></path></g><g><polygon points="4.446966991411009,2.729809703885628 3.8358757210636103,3.340900974233027 3.9242640687119286,3.4292893218813454 3.5707106781186546,3.4292893218813454 3.5707106781186546,3.0757359312880714 3.6590990257669733,3.1641242789363897 4.270190296114372,2.553033008588991" fill="rgb(204, 0, 0)" fill-opacity="0.65"></polygon></g><g><polygon points="3.625,3.7 3.625,4.15 3.75,4.15 3.5,4.4 3.25,4.15 3.375,4.15 3.375,3.7" fill="rgb(204, 0, 0)" fill-opacity="0.65"></polygon></g><g><polygon points="3.446966991411009,4.729809703885628 2.8358757210636103,5.340900974233027 2.9242640687119286,5.429289321881345 2.5707106781186546,5.429289321881345 2.5707106781186546,5.075735931288071 2.6590990257669733,5.16412427893639 3.270190296114372,4.553033008588991" fill="rgb(204, 0, 0)" fill-opacity="0.65"></polygon></g><g><polygon points="1.625,0.7 1.625,1.15 1.75,1.15 1.5,1.4 1.25,1.15 1.375,1.15 1.375,0.7" fill="rgb(0, 204, 0)" fill-opacity="0.65"></polygon></g><g><polygon points="1.625,1.7 1.625,2.15 1.75,2.15 1.5,2.4 1.25,2.15 1.375,2.15 1.375,1.7" fill="rgb(0, 204, 0)" fill-opacity="0.65"></polygon></g><g><polygon points="1.625,2.7 1.625,3.15 1.75,3.15 1.5,3.4 1.25,3.15 1.375,3.15 1.375,2.7" fill="rgb(0, 204, 0)" fill-opacity="0.65"></polygon></g><g><polygon points="1.446966991411009,3.729809703885628 0.8358757210636102,4.340900974233027 0.9242640687119286,4.429289321881345 0.5707106781186548,4.429289321881345 0.5707106781186548,4.075735931288071 0.6590990257669732,4.16412427893639 1.270190296114372,3.553033008588991" fill="rgb(0, 204, 0)" fill-opacity="0.65"></polygon></g></svg>